<svg xmlns="http://www.w3.org/2000/svg" version="1.1" xmlns:xlink="http://www.w3.org/1999/xlink" xmlns:svgjs="http://svgjs.dev/svgjs" width="1980" height="1080" preserveAspectRatio="none" viewBox="0 0 1980 1080"><g mask="url(&quot;#SvgjsMask1631&quot;)" fill="none"><rect width="1980" height="1080" x="0" y="0" fill="rgba(255, 255, 255, 1)"></rect><path d="M1204.278,859.8C1249.87,859.903,1302.316,864.002,1327.295,825.862C1353.802,785.388,1341.331,731.486,1314.815,691.019C1290.82,654.4,1248.055,638.622,1204.278,638.12C1159.429,637.605,1113.755,650.861,1089.257,688.431C1062.512,729.448,1054.932,784.651,1082.22,825.308C1107.474,862.934,1158.963,859.698,1204.278,859.8" fill="rgba(248, 248, 248, 1)" class="triangle-float1"></path><path d="M1246.627,538.683C1354.364,541.613,1474.091,540.193,1535.452,451.588C1603.772,352.934,1602.508,217.874,1539.534,115.725C1479.25,17.94,1361.489,-18.537,1246.627,-16.91C1135.036,-15.33,1023.709,27.267,967.747,123.824C911.643,220.626,921.371,343.729,983.791,436.584C1039.992,520.188,1145.926,535.944,1246.627,538.683" fill="rgba(248, 248, 248, 1)" class="triangle-float2"></path><path d="M1849.382,822.481C1932.863,825.242,2019.529,800.392,2063.965,729.666C2110.957,654.871,2113.75,554.746,2063.034,482.424C2017.582,417.609,1928.378,418.518,1849.382,423.668C1781.72,428.079,1716.197,450.707,1679.086,507.456C1638.054,570.2,1622.399,650.291,1658.05,716.242C1695.231,785.023,1771.238,819.897,1849.382,822.481" fill="rgba(248, 248, 248, 1)" class="triangle-float2"></path><path d="M161.355,525.375C205.625,529.184,256.021,527.727,280.849,490.877C307.796,450.883,302.861,395.695,275.474,356.001C251.05,320.602,204.297,315.322,161.355,317.69C123.339,319.787,85.989,334.412,67.138,367.491C48.45,400.284,53.515,440.57,72.857,472.982C91.686,504.534,124.747,522.225,161.355,525.375" fill="rgba(248, 248, 248, 1)" class="triangle-float2"></path><path d="M1200.596,523.553C1281.889,519.618,1337.21,449.241,1375.252,377.291C1410.293,311.016,1422.883,234.577,1388.65,167.881C1351.273,95.06,1282.316,41.68,1200.596,37.012C1110.322,31.856,1016.377,65.686,971.248,144.04C926.183,222.282,947.277,318.469,993.977,395.746C1038.871,470.034,1113.898,527.749,1200.596,523.553" fill="rgba(248, 248, 248, 1)" class="triangle-float2"></path><path d="M474.612,943.591C573.417,950.626,670.258,901.281,720.824,816.105C772.396,729.234,770.606,619.688,718.159,533.343C667.588,450.087,571.979,407.822,474.612,410.76C382.343,413.545,297.435,465.198,255.262,547.313C216.232,623.309,241.091,710.146,282.465,784.892C325.583,862.789,385.803,937.267,474.612,943.591" fill="rgba(248, 248, 248, 1)" class="triangle-float1"></path></g><defs><mask id="SvgjsMask1631"><rect width="1980" height="1080" fill="#ffffff"></rect></mask><style>
                @keyframes float1 {
                    0%{transform: translate(0, 0)}
                    50%{transform: translate(-10px, 0)}
                    100%{transform: translate(0, 0)}
                }

                .triangle-float1 {
                    animation: float1 5s infinite;
                }

                @keyframes float2 {
                    0%{transform: translate(0, 0)}
                    50%{transform: translate(-5px, -5px)}
                    100%{transform: translate(0, 0)}
                }

                .triangle-float2 {
                    animation: float2 4s infinite;
                }

                @keyframes float3 {
                    0%{transform: translate(0, 0)}
                    50%{transform: translate(0, -10px)}
                    100%{transform: translate(0, 0)}
                }

                .triangle-float3 {
                    animation: float3 6s infinite;
                }
            </style></defs></svg>