<svg id="visual" viewBox="0 0 900 600" width="900" height="600" xmlns="http://www.w3.org/2000/svg" xmlns:xlink="http://www.w3.org/1999/xlink" version="1.1"><rect x="0" y="0" width="900" height="600" fill="#f8f8f8"></rect><path d="M0 201L18.8 206.5C37.7 212 75.3 223 112.8 216.3C150.3 209.7 187.7 185.3 225.2 178.2C262.7 171 300.3 181 337.8 191.7C375.3 202.3 412.7 213.7 450.2 198.3C487.7 183 525.3 141 562.8 144.2C600.3 147.3 637.7 195.7 675.2 199.2C712.7 202.7 750.3 161.3 787.8 152.3C825.3 143.3 862.7 166.7 881.3 178.3L900 190L900 0L881.3 0C862.7 0 825.3 0 787.8 0C750.3 0 712.7 0 675.2 0C637.7 0 600.3 0 562.8 0C525.3 0 487.7 0 450.2 0C412.7 0 375.3 0 337.8 0C300.3 0 262.7 0 225.2 0C187.7 0 150.3 0 112.8 0C75.3 0 37.7 0 18.8 0L0 0Z" fill="#eee" stroke-linecap="round" stroke-linejoin="miter"></path></svg>